<?xml version="1.0" encoding="UTF-8" standalone="no"?>
<svg
   xmlns:dc="http://purl.org/dc/elements/1.1/"
   xmlns:cc="http://creativecommons.org/ns#"
   xmlns:rdf="http://www.w3.org/1999/02/22-rdf-syntax-ns#"
   xmlns:svg="http://www.w3.org/2000/svg"
   xmlns="http://www.w3.org/2000/svg"
   xmlns:sodipodi="http://sodipodi.sourceforge.net/DTD/sodipodi-0.dtd"
   xmlns:inkscape="http://www.inkscape.org/namespaces/inkscape"
   width="100mm"
   height="44mm"
   viewBox="0 0 354.33071 155.90551"
   id="svg2"
   version="1.1"
   inkscape:version="1.0.2 (e86c870879, 2021-01-15)"
   sodipodi:docname="fedora-loves-python-grayscale.svg">
  <defs
     id="defs4" />
  <sodipodi:namedview
     id="base"
     pagecolor="#404040"
     bordercolor="#666666"
     borderopacity="1.0"
     inkscape:pageopacity="0"
     inkscape:pageshadow="2"
     inkscape:zoom="2.28"
     inkscape:cx="111.6537"
     inkscape:cy="106.09003"
     inkscape:document-units="mm"
     inkscape:current-layer="g11879"
     showgrid="false"
     inkscape:window-width="1848"
     inkscape:window-height="1056"
     inkscape:window-x="72"
     inkscape:window-y="0"
     inkscape:window-maximized="1"
     showguides="true"
     inkscape:guide-bbox="true"
     fit-margin-top="5"
     fit-margin-left="5"
     fit-margin-bottom="5"
     fit-margin-right="5"
     inkscape:document-rotation="0" />
  <metadata
     id="metadata7">
    <rdf:RDF>
      <cc:Work
         rdf:about="">
        <dc:format>image/svg+xml</dc:format>
        <dc:type
           rdf:resource="http://purl.org/dc/dcmitype/StillImage" />
        <dc:title />
      </cc:Work>
    </rdf:RDF>
  </metadata>
  <g
     style="display:inline"
     id="g11879"
     inkscape:groupmode="layer"
     inkscape:label="all"
     transform="translate(-120.06159,-210.79887)">
    <path
       style="fill:#ffffff;fill-opacity:1;fill-rule:nonzero;stroke:none"
       d="m 394.05325,228.3155 c -11.40351,0.009 -24.72473,3.79243 -29.9501,14.93768 -1.5289,2.89101 -1.27199,6.72751 -2.43512,9.43897 -2.17823,0.45073 -4.20855,1.39242 -6.32066,2.06018 -8.60516,-18.57285 -32.98188,-28.96012 -51.7985,-19.63424 -2.2532,0.96523 -4.42169,2.22127 -6.49918,3.45564 -17.12739,-12.87686 -44.52986,-6.9127 -55.15002,11.57521 -18.59846,-22.42875 -55.09188,-28.63884 -78.8475,-10.94941 -15.96315,11.88683 -27.09048,22.08531 -26.47013,59.55593 0.20764,12.54235 -1.8503,26.0287 3.55055,37.87061 6.19019,10.14698 18.92801,11.75721 30.55184,11.57604 18.74925,-0.29221 39.66757,2.23051 56.46351,-8.34765 10.351,-6.10294 18.31116,-15.72961 23.5182,-26.46687 12.45395,15.08189 29.50767,25.39497 46.78918,34.06113 17.83138,-7.96434 34.26337,-19.54836 46.62907,-34.76698 4.02615,6.23132 10.62895,11.00513 18.06933,11.99418 1.5128,12.18834 12.52535,21.33391 24.30414,23.08556 15.39489,3.7843 33.9484,0.2704 43.9809,-12.81932 2.09221,-3.05048 2.39686,-7.16039 3.90555,-10.24222 11.72477,-1.5669 20.34359,-12.27056 22.1024,-23.56415 3.9811,-15.43473 0.89617,-33.6967 -11.14765,-44.82498 -3.25305,-2.45686 -7.69522,-3.08723 -11.2523,-4.2111 -1.61196,-13.2793 -14.26112,-23.69092 -27.51097,-23.492 -4.15027,-0.38017 -8.32065,-0.2903 -12.48254,-0.29221 z"
       id="path11883"
       inkscape:connector-curvature="0"
       sodipodi:nodetypes="cccccccsscsccccccccccccc" />
    <path
       style="display:inline;fill:#000000;fill-opacity:1;fill-rule:nonzero;stroke:none"
       id="path11966"
       d="m 274.8424,245.31527 c 3.99791,-0.26646 7.61325,0.51517 11.22859,2.57583 0.47822,0.26646 2.00852,1.1902 2.41023,1.54549 0.47822,0.44411 3.80662,3.05546 4.457,3.90815 0.32519,0.40858 3.50057,4.24567 3.50057,4.24567 0,0 3.02235,-3.21534 3.55795,-3.76603 0.91818,-0.90598 1.77898,-1.4922 2.44849,-1.9896 1.95113,-1.47444 3.94052,-2.789 6.17859,-4.06803 1.56856,-0.90598 4.26572,-1.74091 5.70038,-1.93631 0.4017,-0.0533 1.47291,-0.19541 1.95113,-0.26647 5.4517,-0.78163 12.51022,1.42115 16.50814,3.73051 4.41875,2.5403 7.46022,6.28857 9.81306,10.97835 0.51648,1.04809 1.70246,3.83709 1.93201,4.5299 1.24337,3.71274 1.5303,8.40253 1.16685,13.03901 -0.55473,7.21232 -3.65359,14.62004 -6.96287,19.09665 -0.66951,0.88821 -2.19981,3.4818 -4.0553,5.72011 -6.1786,7.38995 -15.32215,16.59187 -24.5231,22.41857 -2.58238,1.63432 -12.47196,7.05244 -12.47196,7.05244 0,0 -10.31041,-5.75564 -11.95549,-6.76821 -10.42518,-6.46621 -21.94071,-15.6326 -28.36798,-25.9892 -2.23806,-3.60616 -4.82045,-7.24785 -6.29336,-11.6534 -0.68864,-2.02513 -1.30076,-3.76604 -1.77898,-6.0221 -1.1286,-5.31153 -0.78428,-11.56457 0.72689,-16.52082 0.66951,-2.20277 1.66421,-4.56543 2.62065,-6.44845 3.4623,-6.73268 9.88957,-11.15599 18.34449,-12.87913 1.33902,-0.26646 2.62065,-0.46187 3.86402,-0.53293"
       inkscape:connector-curvature="0" />
    <g
       id="g211"
       style="display:inline;stroke-width:0.675354"
       transform="matrix(2.0416313,0,0,2.0416942,96.60536,24.633052)">
      <path
         d="m 48.859988,106.87821 c -12.444941,0 -22.53368,10.08309 -22.541794,22.52521 h -0.0014 v 17.44486 h 0.0014 c 0.0056,2.8247 2.297289,5.11246 5.123392,5.11246 0.0071,0 0.01799,0 0.02505,0 h 0.0014 17.399 c 12.446352,-0.007 22.53368,-10.09544 22.53368,-22.54074 0,-12.45058 -10.091561,-22.54179 -22.542147,-22.54179 z"
         style="fill:#000000;fill-opacity:1;fill-rule:nonzero;stroke:none;stroke-width:0.238252"
         id="path244" />
      <path
         d="m 53.42846,116.15238 c -3.51543,0 -6.620227,2.64725 -7.050263,6.11999 -0.02893,0.29069 -0.04269,0.5013 -0.0441,0.76483 -0.01517,4.69053 0.03034,9.67775 0.0014,14.19366 0,2.72309 -2.033764,4.57658 -4.580467,4.57658 -2.550936,0 -4.606925,-2.03694 -4.606925,-4.58082 0.04269,-2.79188 2.271183,-4.56 4.878211,-4.63691 h 0.02364 l 2.638778,-0.0222 v -3.7525 l -2.640189,0.018 c -4.74345,-0.0441 -8.516408,3.66995 -8.653991,8.39364 0,4.59176 3.778602,8.33861 8.359069,8.33861 4.321528,0 7.918097,-3.38032 8.310739,-7.60554 0.0568,-1.43862 0.03034,-3.33198 0.03034,-3.33198 0.0071,-0.7814 -0.01517,-0.49883 -0.0067,-2.05035 l 3.279775,-0.0222 c 2.539647,0.0194 2.514952,-3.80894 -0.02505,-3.75638 l -3.254727,0.0219 c 0,-1.9251 0.03034,-3.8421 0,-5.77109 0.0042,-1.66758 1.5875,-3.13937 3.340452,-3.13937 1.754012,0 3.607506,0.87666 3.607506,3.14325 0,0.32385 -0.0081,0.51153 -0.02611,0.63148 -0.195791,1.05127 0.523523,2.05316 1.581856,2.20486 1.058333,0.14993 2.028472,-0.61207 2.133247,-1.6757 0.06068,-0.42051 0.0635,-0.78987 0.0635,-1.16064 0,-3.99767 -3.574697,-6.90104 -7.360003,-6.90104 z"
         style="fill:#fafafa;fill-opacity:1;fill-rule:nonzero;stroke:none;stroke-width:0.238252"
         id="path246" />
    </g>
    <g
       id="g921"
       style="display:inline;fill:#000000">
      <path
         inkscape:connector-curvature="0"
         d="m 423.62488,327.08993 h 0.43399 v -2.72184 h 1.02807 v -0.32444 h -2.49012 v 0.32444 h 1.02806 v 2.72184 m 1.84687,0 h 0.37077 v -2.4859 l 0.80476,2.4856 h 0.4128 l 0.83858,-2.47717 v 2.47747 h 0.40448 v -3.04628 h -0.5351 l -0.91642,2.60978 -0.78157,-2.60978 h -0.5983 v 3.04628"
         style="font-style:normal;font-weight:normal;font-size:15.1645px;line-height:125%;font-family:'Bitstream Vera Sans';display:inline;fill:#000000;fill-opacity:1;stroke:none;stroke-width:1px;stroke-linecap:butt;stroke-linejoin:miter;stroke-opacity:1"
         id="text3004"
         sodipodi:nodetypes="ccccccccccccccccccccccc" />
      <g
         id="g4179"
         transform="matrix(0.83030488,0,0,0.83030068,20.866049,40.342118)"
         style="fill:#000000">
        <path
           id="path1948"
           d="m 454.03487,243.21161 c -4.58365,0.0213 -8.96093,0.41222 -12.8125,1.09375 -11.34621,2.0045 -13.40624,6.2001 -13.40625,13.9375 v 10.21875 h 26.8125 v 3.40625 h -26.8125 -10.0625 c -7.79245,0 -14.61575,4.68372 -16.74999,13.59375 -2.46182,10.21296 -2.57102,16.58602 0,27.25 1.90592,7.93785 6.45754,13.59375 14.24999,13.59375 h 9.21875 v -12.25 c 0,-8.8499 7.65715,-16.65625 16.75,-16.65625 h 26.78125 c 7.45496,0 13.40626,-6.13817 13.40625,-13.625 v -25.53125 c 0,-7.26634 -6.12998,-12.72478 -13.40625,-13.9375 -4.60598,-0.76673 -9.38509,-1.11505 -13.96875,-1.09375 z m -14.5,8.21875 c 2.76955,0 5.03125,2.29864 5.03125,5.125 0,2.81633 -2.2617,5.09375 -5.03125,5.09375 -2.77947,0 -5.03125,-2.27742 -5.03125,-5.09375 0,-2.82635 2.25178,-5.125 5.03125,-5.125 z"
           style="fill:#000000;fill-opacity:1"
           inkscape:connector-curvature="0" />
        <path
           id="path1950"
           d="m 484.75362,271.86786 v 11.90625 c 0,9.23075 -7.82589,17 -16.75,17 h -26.78125 c -7.33583,0 -13.40624,6.27848 -13.40625,13.625 v 25.53125 c 0,7.26634 6.31859,11.54032 13.40625,13.625 8.48734,2.49561 16.62624,2.94663 26.78125,0 6.75016,-1.95439 13.40626,-5.88761 13.40625,-13.625 v -10.21875 h -26.78125 v -3.40625 h 26.78125 13.40626 c 7.79246,0 10.69625,-5.43541 13.40624,-13.59375 2.79933,-8.39889 2.68022,-16.47578 0,-27.25 -1.92578,-7.75744 -5.60387,-13.59375 -13.40624,-13.59375 z m -15.0625,64.65625 c 2.77948,0 5.03125,2.27742 5.03125,5.09375 0,2.82635 -2.25177,5.125 -5.03125,5.125 -2.76955,0 -5.03125,-2.29865 -5.03125,-5.125 10e-6,-2.81633 2.2617,-5.09375 5.03125,-5.09375 z"
           style="fill:#000000;fill-opacity:1"
           inkscape:connector-curvature="0" />
      </g>
    </g>
  </g>
</svg>
