<?xml version="1.0" encoding="UTF-8" standalone="no"?>
<!-- Created with Inkscape (http://www.inkscape.org/) -->

<svg
   xmlns:dc="http://purl.org/dc/elements/1.1/"
   xmlns:cc="http://creativecommons.org/ns#"
   xmlns:rdf="http://www.w3.org/1999/02/22-rdf-syntax-ns#"
   xmlns:svg="http://www.w3.org/2000/svg"
   xmlns="http://www.w3.org/2000/svg"
   xmlns:xlink="http://www.w3.org/1999/xlink"
   xmlns:sodipodi="http://sodipodi.sourceforge.net/DTD/sodipodi-0.dtd"
   xmlns:inkscape="http://www.inkscape.org/namespaces/inkscape"
   width="100mm"
   height="44mm"
   viewBox="0 0 354.33071 155.90551"
   id="svg2"
   version="1.1"
   inkscape:version="0.92.3 (2405546, 2018-03-11)"
   sodipodi:docname="preview.svg"
   inkscape:export-filename="/home/churchyard/Obrázky/fedora-python/fedora-loves-python/preview.png"
   inkscape:export-xdpi="182.99545"
   inkscape:export-ydpi="182.99545">
  <defs
     id="defs4">
    <linearGradient
       inkscape:collect="always"
       id="linearGradient11301">
      <stop
         style="stop-color:#ffe052;stop-opacity:1"
         offset="0"
         id="stop11303" />
      <stop
         style="stop-color:#ffc331;stop-opacity:1"
         offset="1"
         id="stop11305" />
    </linearGradient>
    <linearGradient
       inkscape:collect="always"
       xlink:href="#linearGradient11301"
       id="linearGradient11307"
       x1="89.136749"
       y1="111.92053"
       x2="147.77737"
       y2="168.1012"
       gradientUnits="userSpaceOnUse" />
    <linearGradient
       inkscape:collect="always"
       id="linearGradient9515">
      <stop
         style="stop-color:#387eb8;stop-opacity:1"
         offset="0"
         id="stop9517" />
      <stop
         style="stop-color:#366994;stop-opacity:1"
         offset="1"
         id="stop9519" />
    </linearGradient>
    <linearGradient
       inkscape:collect="always"
       xlink:href="#linearGradient9515"
       id="linearGradient9521"
       x1="55.549179"
       y1="77.070274"
       x2="110.14919"
       y2="131.85291"
       gradientUnits="userSpaceOnUse" />
    <filter
       inkscape:collect="always"
       style="color-interpolation-filters:sRGB"
       id="filter1444"
       x="-0.04209799"
       width="1.084196"
       y="-0.11203684"
       height="1.2240737">
      <feGaussianBlur
         inkscape:collect="always"
         stdDeviation="5.6433034"
         id="feGaussianBlur1446" />
    </filter>
  </defs>
  <sodipodi:namedview
     id="base"
     pagecolor="#ffffff"
     bordercolor="#000000"
     borderopacity="1"
     inkscape:pageopacity="0"
     inkscape:pageshadow="2"
     inkscape:zoom="1.14"
     inkscape:cx="92.650207"
     inkscape:cy="44.461842"
     inkscape:document-units="mm"
     inkscape:current-layer="g11879"
     showgrid="false"
     inkscape:window-width="1848"
     inkscape:window-height="1056"
     inkscape:window-x="72"
     inkscape:window-y="0"
     inkscape:window-maximized="1"
     showguides="true"
     inkscape:guide-bbox="true"
     fit-margin-top="5"
     fit-margin-left="5"
     fit-margin-bottom="5"
     fit-margin-right="5" />
  <metadata
     id="metadata7">
    <rdf:RDF>
      <cc:Work
         rdf:about="">
        <dc:format>image/svg+xml</dc:format>
        <dc:type
           rdf:resource="http://purl.org/dc/dcmitype/StillImage" />
        <dc:title></dc:title>
      </cc:Work>
    </rdf:RDF>
  </metadata>
  <g
     style="display:inline"
     id="g11879"
     inkscape:groupmode="layer"
     inkscape:label="all"
     transform="translate(-120.06159,-210.79887)">
    <path
       sodipodi:nodetypes="cccccccsscsccccccccccccc"
       inkscape:connector-curvature="0"
       id="path850"
       d="m 399.67825,233.9405 c -11.40351,0.009 -24.72473,3.79243 -29.9501,14.93768 -1.5289,2.89101 -1.27199,6.72751 -2.43512,9.43897 -2.17823,0.45073 -4.20855,1.39242 -6.32066,2.06018 -8.60516,-18.57285 -32.98188,-28.96012 -51.7985,-19.63424 -2.2532,0.96523 -4.42169,2.22127 -6.49918,3.45564 -17.12739,-12.87686 -44.52986,-6.9127 -55.15002,11.57521 -18.59846,-22.42875 -55.09188,-28.63884 -78.8475,-10.94941 -15.96315,11.88683 -27.09048,22.08531 -26.47013,59.55593 0.20764,12.54235 -1.8503,26.0287 3.55055,37.87061 6.19019,10.14698 18.92801,11.75721 30.55184,11.57604 18.74925,-0.29221 39.66757,2.23051 56.46351,-8.34765 10.351,-6.10294 18.31116,-15.72961 23.5182,-26.46687 12.45395,15.08189 29.50767,25.39497 46.78918,34.06113 17.83138,-7.96434 34.26337,-19.54836 46.62907,-34.76698 4.02615,6.23132 10.62895,11.00513 18.06933,11.99418 1.5128,12.18834 12.52535,21.33391 24.30414,23.08556 15.39489,3.7843 33.9484,0.2704 43.9809,-12.81932 2.09221,-3.05048 2.39686,-7.16039 3.90555,-10.24222 11.72477,-1.5669 20.34359,-12.27056 22.1024,-23.56415 3.9811,-15.43473 0.89617,-33.6967 -11.14765,-44.82498 -3.25305,-2.45686 -7.69522,-3.08723 -11.2523,-4.2111 -1.61196,-13.2793 -14.26112,-23.69092 -27.51097,-23.492 -4.15027,-0.38017 -8.32065,-0.2903 -12.48254,-0.29221 z"
       style="fill:#919191;fill-opacity:1;fill-rule:nonzero;stroke:none;stroke-width:0.35433072;stroke-miterlimit:4;stroke-dasharray:none;stroke-opacity:1;filter:url(#filter1444)" />
    <path
       style="fill:#ffffff;fill-opacity:1;fill-rule:nonzero;stroke:#c8c8c8;stroke-width:0.35433071;stroke-opacity:1;stroke-miterlimit:4;stroke-dasharray:none"
       d="m 394.05325,228.3155 c -11.40351,0.009 -24.72473,3.79243 -29.9501,14.93768 -1.5289,2.89101 -1.27199,6.72751 -2.43512,9.43897 -2.17823,0.45073 -4.20855,1.39242 -6.32066,2.06018 -8.60516,-18.57285 -32.98188,-28.96012 -51.7985,-19.63424 -2.2532,0.96523 -4.42169,2.22127 -6.49918,3.45564 -17.12739,-12.87686 -44.52986,-6.9127 -55.15002,11.57521 -18.59846,-22.42875 -55.09188,-28.63884 -78.8475,-10.94941 -15.96315,11.88683 -27.09048,22.08531 -26.47013,59.55593 0.20764,12.54235 -1.8503,26.0287 3.55055,37.87061 6.19019,10.14698 18.92801,11.75721 30.55184,11.57604 18.74925,-0.29221 39.66757,2.23051 56.46351,-8.34765 10.351,-6.10294 18.31116,-15.72961 23.5182,-26.46687 12.45395,15.08189 29.50767,25.39497 46.78918,34.06113 17.83138,-7.96434 34.26337,-19.54836 46.62907,-34.76698 4.02615,6.23132 10.62895,11.00513 18.06933,11.99418 1.5128,12.18834 12.52535,21.33391 24.30414,23.08556 15.39489,3.7843 33.9484,0.2704 43.9809,-12.81932 2.09221,-3.05048 2.39686,-7.16039 3.90555,-10.24222 11.72477,-1.5669 20.34359,-12.27056 22.1024,-23.56415 3.9811,-15.43473 0.89617,-33.6967 -11.14765,-44.82498 -3.25305,-2.45686 -7.69522,-3.08723 -11.2523,-4.2111 -1.61196,-13.2793 -14.26112,-23.69092 -27.51097,-23.492 -4.15027,-0.38017 -8.32065,-0.2903 -12.48254,-0.29221 z"
       id="path11883"
       inkscape:connector-curvature="0"
       sodipodi:nodetypes="cccccccsscsccccccccccccc" />
    <g
       id="g11320"
       transform="matrix(0.68317067,0,0,0.68317067,42.239037,72.476528)">
      <g
         id="g12820"
         style="display:inline">
        <g
           transform="matrix(0.79019286,0,0,0.79019286,-645.22057,-128.57408)"
           id="g11958">
          <path
             inkscape:connector-curvature="0"
             d="m 1187.1177,563.24592 c 0,-47.00738 -38.1083,-85.11593 -85.1151,-85.11593 -46.9862,0 -85.078,38.0766 -85.1122,85.05597 v -0.003 65.86623 0.003 c 0.026,10.66683 8.6764,19.30216 19.3501,19.30216 l 0.093,-0.003 0.01,0.003 h 65.6982 c 46.9918,-0.0176 85.081,-38.11282 85.081,-85.10843"
             style="fill:#072b61;fill-opacity:1;fill-rule:nonzero;stroke:none"
             id="path11960" />
          <path
             inkscape:connector-curvature="0"
             d="m 1127.0577,498.34211 c -22.0631,0 -39.9392,17.87638 -39.9392,39.93915 v 21.18231 h -21.1823 c -22.063,0 -39.9391,17.71623 -39.9391,39.77745 -10e-5,22.06239 17.8761,39.93915 39.9391,39.93915 22.0618,10e-6 39.9392,-17.87676 39.9392,-39.93915 v -21.1823 h 21.1823 c 22.0616,0 39.9391,-17.71507 39.9391,-39.77746 0,-22.06277 -17.8775,-39.93915 -39.9391,-39.93915 z m 0,18.75685 c 11.6458,0 21.1823,9.53508 21.1823,21.1823 0,11.64406 -9.5365,21.18231 -21.1823,21.18231 h -0.1615 -17.9483 c -1.6468,0 -3.0723,-1.42844 -3.0723,-3.07225 v -18.11006 c 0.021,-11.63222 9.5517,-21.1823 21.1823,-21.1823 z m -61.1215,60.95976 h 18.1101 c 1.644,0 3.0722,1.26596 3.0722,2.91054 v 18.27176 c -0.015,11.62835 -9.5502,21.18231 -21.1823,21.18231 -11.6443,0 -21.1823,-9.53825 -21.1823,-21.18231 0,-11.64606 9.538,-21.1823 21.1823,-21.1823 z m 97.3416,49.96436 v 0.97018 h 1.617 v 4.68922 h 0.9701 v -4.68922 h 1.617 v -0.97018 z m 5.0126,0 v 5.6594 h 0.9702 v -3.07225 -0.48509 l 0.1614,0.48509 1.4553,3.23394 1.2936,-3.23394 0.3234,-0.64678 v 0.64678 3.07225 h 0.8084 v -5.6594 h -0.9701 l -1.1319,2.91055 -0.3234,0.80848 -0.3234,-0.80848 -1.2936,-2.91055 h -0.9702 z"
             style="fill:#0a57a4;fill-opacity:1;fill-rule:nonzero;stroke:none"
             id="path11962"
             sodipodi:nodetypes="sscsssscssscsscsscccssscsssccccccccccccccccccccccccccccc" />
          <path
             inkscape:connector-curvature="0"
             d="m 1087.0455,559.42502 v -21.14421 -0.0276 c 0,-22.06277 17.8842,-39.94736 39.9473,-39.94736 3.3484,0 5.726,0.37578 8.8263,1.18782 4.5166,1.18356 8.2059,4.88487 8.2087,9.19455 0,5.20819 -3.7791,8.99365 -9.4289,8.99365 -2.6927,0 -3.6646,-0.51517 -7.6076,-0.51517 -11.6306,0 -21.0622,9.41956 -21.0826,21.05178 v 18.2268 0.003 c 0,1.64381 1.3306,2.97697 2.9774,2.97697 h 0.01 13.8448 c 5.1602,0 9.3251,4.12844 9.3294,9.30068 0,5.17663 -4.1706,9.29718 -9.3294,9.29718 h -16.8305 v 21.23457 0.0279 c 0,22.05961 -17.8856,39.94679 -39.9474,39.94679 -3.347,0 -5.726,-0.37768 -8.8235,-1.18751 -4.5182,-1.18194 -8.2102,-4.88622 -8.2115,-9.19435 0,-5.20793 3.7806,-8.99539 9.4302,-8.99539 2.6899,0 3.666,0.51681 7.6048,0.51681 11.632,0 21.0664,-9.42215 21.0855,-21.05321 v -18.32117 c 0,-1.64181 -1.3335,-2.9718 -2.9775,-2.9718 h -0.01 l -13.8448,-0.003 c -5.1602,0 -9.3292,-4.11661 -9.3292,-9.29162 0,-5.20703 4.2127,-9.30625 9.4287,-9.30625 h 16.7297"
             style="fill:#ffffff;fill-opacity:1;fill-rule:nonzero;stroke:none"
             id="path11964" />
        </g>
      </g>
      <path
         inkscape:connector-curvature="0"
         d="m 340.47621,252.99497 c 5.852,-0.39004 11.144,0.75408 16.436,3.7704 0.7,0.39004 2.94,1.74218 3.528,2.26224 0.7,0.65007 5.572,4.47247 6.524,5.7206 0.476,0.59807 5.124,6.21466 5.124,6.21466 0,0 4.424,-4.7065 5.208,-5.51258 1.344,-1.32614 2.604,-2.18423 3.584,-2.91231 2.856,-2.15823 5.768,-4.08243 9.044,-5.95463 2.296,-1.32614 6.244,-2.54827 8.344,-2.8343 0.588,-0.078 2.156,-0.28603 2.856,-0.39004 7.98,-1.14412 18.312,2.08022 24.164,5.46058 6.468,3.71839 10.92,9.20497 14.364,16.0697 0.756,1.53416 2.492,5.6166 2.828,6.6307 1.82,5.43458 2.24,12.29931 1.708,19.08603 -0.812,10.55712 -5.348,21.40027 -10.192,27.95296 -0.98,1.30014 -3.22,5.09654 -5.936,8.37289 -9.044,10.81714 -22.428,24.28657 -35.896,32.81548 -3.78,2.39225 -18.256,10.32309 -18.256,10.32309 0,0 -15.092,-8.42489 -17.5,-9.90705 -15.26,-9.465 -32.116,-22.88242 -41.524,-38.04203 -3.276,-5.27856 -7.056,-10.60913 -9.212,-17.05781 -1.008,-2.96432 -1.904,-5.51259 -2.604,-8.81494 -1.652,-7.77482 -1.148,-16.92779 1.064,-24.18256 0.98,-3.22434 2.436,-6.68271 3.836,-9.439 5.068,-9.85505 14.476,-16.32973 26.852,-18.852 1.96,-0.39004 3.836,-0.67607 5.656,-0.78008"
         id="path11966"
         style="display:inline;fill:#ee2722;fill-opacity:1;fill-rule:nonzero;stroke:none" />
      <g
         id="g11394"
         style="display:inline">
        <path
           inkscape:connector-curvature="0"
           d="m 558.25852,372.6937 h 0.63525 v -3.98414 h 1.50486 v -0.47489 h -3.64495 v 0.47489 h 1.50484 v 3.98414 m 2.70337,0 h 0.54272 v -3.63877 l 1.17798,3.63832 h 0.60424 l 1.22748,-3.62598 v 3.62643 h 0.59207 v -4.45903 h -0.78326 l -1.34142,3.82009 -1.14404,-3.82009 h -0.87577 v 4.45903"
           style="font-style:normal;font-weight:normal;font-size:15.16445827px;line-height:125%;font-family:'Bitstream Vera Sans';display:inline;fill:#646464;fill-opacity:1;stroke:none;stroke-width:1px;stroke-linecap:butt;stroke-linejoin:miter;stroke-opacity:1"
           id="text3004"
           sodipodi:nodetypes="ccccccccccccccccccccccc" />
        <g
           id="g1894"
           transform="matrix(1.2436959,0,0,1.2436959,396.00798,163.99537)">
          <path
             inkscape:connector-curvature="0"
             style="color:#000000;display:inline;overflow:visible;visibility:visible;opacity:1;fill:url(#linearGradient9521);fill-opacity:1;fill-rule:nonzero;stroke:none;stroke-width:1;stroke-linecap:butt;stroke-linejoin:miter;stroke-miterlimit:4;stroke-dasharray:none;stroke-dashoffset:0;stroke-opacity:1;marker:none;marker-start:none;marker-mid:none;marker-end:none"
             d="M 99.75,67.46875 C 71.718268,67.468752 73.46875,79.625 73.46875,79.625 L 73.5,92.21875 h 26.75 V 96 H 62.875 c 0,0 -17.9375,-2.034276 -17.9375,26.25 -2e-6,28.28427 15.65625,27.28125 15.65625,27.28125 h 9.34375 v -13.125 c 0,0 -0.503652,-15.65625 15.40625,-15.65625 15.9099,0 26.53125,0 26.53125,0 0,0 14.90625,0.24096 14.90625,-14.40625 0,-14.647206 0,-24.21875 0,-24.21875 0,-2e-6 2.26318,-14.65625 -27.03125,-14.65625 z M 85,75.9375 c 2.661429,-2e-6 4.8125,2.151071 4.8125,4.8125 2e-6,2.661429 -2.151071,4.8125 -4.8125,4.8125 -2.661429,2e-6 -4.8125,-2.151071 -4.8125,-4.8125 -2e-6,-2.661429 2.151071,-4.8125 4.8125,-4.8125 z"
             id="path8615" />
          <path
             inkscape:connector-curvature="0"
             id="path8620"
             d="m 100.5461,177.31485 c 28.03174,0 26.28125,-12.15625 26.28125,-12.15625 l -0.0312,-12.59375 h -26.75 v -3.78125 h 37.375 c 0,0 17.9375,2.03427 17.9375,-26.25001 10e-6,-28.284267 -15.65625,-27.281247 -15.65625,-27.281247 h -9.34375 v 13.124997 c 0,0 0.50366,15.65625 -15.40625,15.65625 -15.909902,0 -26.531252,0 -26.531252,0 0,0 -14.90625,-0.24096 -14.90625,14.40626 0,14.6472 0,24.21875 0,24.21875 0,0 -2.26318,14.65625 27.031252,14.65625 z m 14.75,-8.46875 c -2.66143,0 -4.8125,-2.15107 -4.8125,-4.8125 0,-2.66143 2.15107,-4.8125 4.8125,-4.8125 2.66143,0 4.8125,2.15107 4.8125,4.8125 1e-5,2.66143 -2.15107,4.8125 -4.8125,4.8125 z"
             style="color:#000000;display:inline;overflow:visible;visibility:visible;opacity:1;fill:url(#linearGradient11307);fill-opacity:1;fill-rule:nonzero;stroke:none;stroke-width:1;stroke-linecap:butt;stroke-linejoin:miter;stroke-miterlimit:4;stroke-dasharray:none;stroke-dashoffset:0;stroke-opacity:1;marker:none;marker-start:none;marker-mid:none;marker-end:none" />
        </g>
      </g>
    </g>
  </g>
</svg>
